# xmcd
#
# Track frame offsets:
#	150
#	10446
#	23072
#	33601
#	48570
#	60467
#	73339
#	90214
#	103970
#	115843
#	132117
#	144615
#	159929
#	176626
#
# Disc length: 2576 seconds
#
# Revision: 1
# Processed by: cddbd v1.5.2PL0 Copyright (c) Steve Scherf et al.
# Submitted via: audiograbber 1.83.01
#
DISCID=be0a0e0e
DTITLE=Johnny Cash - The Greatest: Duets
DYEAR=2012
DGENRE=Country
TTITLE0=I've Been Everywhere (w. Lynn Anderson)
TTITLE1=Jackson (w. June Carter)
TTITLE2=I Got Stripes (Album Version w. George Jones)
TTITLE3=There Ain't No Good Chain Gang (w. Waylon Jennings)
TTITLE4=Another Man Done Gone (w. Anita Carter)
TTITLE5=That Silver Haired Daddy Of Mine (w. Tommy Cash)
TTITLE6=Girl From The North Country (w. Bob Dylan)
TTITLE7=If I Were A Carpenter (w. June Carter Cash)
TTITLE8=Long-Legged Guitar Pickin' Man (w. June Carter)
TTITLE9=Crazy Old Soldier (w. Ray Charles)
TTITLE10=I Wish I Was Crazy Again (w. Waylon Jennings)
TTITLE11=Jim, I Wore A Tie Today (w. Willie Nelson)
TTITLE12=You Can't Beat Jesus Christ (w. Billy Joe Shaver)
TTITLE13=The Greatest Cowboy Of Them All (w. Waylon Jennings)
EXTD=
EXTT0=
EXTT1=
EXTT2=
EXTT3=
EXTT4=
EXTT5=
EXTT6=
EXTT7=
EXTT8=
EXTT9=
EXTT10=
EXTT11=
EXTT12=
EXTT13=
PLAYORDER=
